<svg width="566" height="170" viewBox="0 0 566 170" fill="none" xmlns="http://www.w3.org/2000/svg">
<path d="M163.5 136.5C163.5 143.775 156.935 150.527 145.928 155.49C134.968 160.431 119.791 163.5 103 163.5C86.2094 163.5 71.0325 160.431 60.072 155.49C49.0649 150.527 42.5 143.775 42.5 136.5C42.5 129.225 49.0649 122.473 60.072 117.51C71.0325 112.569 86.2094 109.5 103 109.5C119.791 109.5 134.968 112.569 145.928 117.51C156.935 122.473 163.5 129.225 163.5 136.5Z" fill="#6495ED" stroke="black"/>
<mask id="path-2-inside-1_19_60" fill="white">
<path d="M42 74H164V137H42V74Z"/>
</mask>
<path d="M42 74H164V137H42V74Z" fill="#6495ED"/>
<path d="M163 74V137H165V74H163ZM43 137V74H41V137H43Z" fill="black" mask="url(#path-2-inside-1_19_60)"/>
<g filter="url(#filter0_d_19_60)">
<path d="M97.2089 50.706L163.709 85.206L133.709 97.706L104.709 109.206L41.7089 83.206L97.2089 50.706Z" fill="black"/>
</g>
<path d="M103.291 23.794L208 66.6438L156.354 87.4249L104.709 108.206L3.03901e-06 65.3562L103.291 23.794Z" fill="black"/>
<path d="M13.3289 64.5087L102.618 28.9284L193.673 66.4934L149.477 84.2105L149.476 84.2111L104.319 102.154L13.3289 64.5087Z" fill="#6495ED" stroke="black"/>
<path d="M97.3384 62.5166L124.6 38.0822L160.158 52.7796L97.3384 62.5166Z" fill="black" stroke="black"/>
<path d="M126 37.5L163 52L100.5 60.5L126 37.5Z" fill="black"/>
<path d="M48.9376 79.1803L36.3952 73.8868L77.6712 58.753L48.9376 79.1803Z" fill="black" stroke="black"/>
<path d="M73.5 61L47 80L36 74.5L73.5 61Z" fill="black"/>
<path d="M76.986 90.848L66.5082 86.4938L112.282 74.0192L76.986 90.848Z" fill="black" stroke="black"/>
<path d="M105 76.5L76 91L66 87L105 76.5Z" fill="black"/>
<g filter="url(#filter1_d_19_60)">
<path d="M190.963 122.55C190.963 122.917 191.029 123.167 191.163 123.3C191.329 123.4 191.646 123.5 192.113 123.6L193.913 124V125H186.313V124L188.163 123.6C188.663 123.5 188.979 123.383 189.113 123.25C189.279 123.117 189.363 122.867 189.363 122.5V92.5C189.363 92.1333 189.279 91.8833 189.113 91.75C188.979 91.6167 188.663 91.5 188.163 91.4L186.313 91V90H199.113L209.413 112.25L218.613 90H231.813V91L229.963 91.4C229.463 91.5 229.129 91.6167 228.963 91.75C228.829 91.8833 228.763 92.1333 228.763 92.5V122.5C228.763 122.867 228.829 123.117 228.963 123.25C229.129 123.383 229.463 123.5 229.963 123.6L231.813 124V125H215.613V124L217.413 123.6C217.879 123.5 218.179 123.4 218.313 123.3C218.479 123.167 218.563 122.917 218.563 122.55V94.25L205.863 125H204.363L190.963 95.55V122.55ZM242.358 96.9C240.792 96.9 239.542 96.55 238.608 95.85C237.675 95.1167 237.208 94.0667 237.208 92.7C237.208 91.3333 237.675 90.3 238.608 89.6C239.542 88.8667 240.792 88.5 242.358 88.5C243.925 88.5 245.175 88.8667 246.108 89.6C247.042 90.3 247.508 91.3333 247.508 92.7C247.508 94.0667 247.042 95.1167 246.108 95.85C245.175 96.55 243.925 96.9 242.358 96.9ZM234.408 124.1L236.158 123.7C236.658 123.6 236.975 123.483 237.108 123.35C237.275 123.217 237.358 122.967 237.358 122.6V103.7C237.358 103.333 237.275 103.083 237.108 102.95C236.975 102.817 236.658 102.7 236.158 102.6L234.408 102.2V101.3L246.408 99.8H247.358V122.6C247.358 122.967 247.425 123.217 247.558 123.35C247.725 123.483 248.058 123.6 248.558 123.7L250.308 124.1V125H234.408V124.1ZM285.064 122.6C285.064 122.967 285.131 123.217 285.264 123.35C285.431 123.483 285.764 123.6 286.264 123.7L288.014 124.1V125H277.614C276.714 125 276.064 124.767 275.664 124.3C275.264 123.833 275.064 123.133 275.064 122.2V107C275.064 105.5 274.814 104.433 274.314 103.8C273.848 103.167 273.048 102.85 271.914 102.85C269.914 102.85 267.864 103.683 265.764 105.35V122.6C265.764 122.967 265.831 123.233 265.964 123.4C266.131 123.533 266.448 123.65 266.914 123.75L268.614 124.1V125H252.814V124.1L254.564 123.7C255.064 123.6 255.381 123.483 255.514 123.35C255.681 123.217 255.764 122.967 255.764 122.6V103.7C255.764 103.333 255.681 103.083 255.514 102.95C255.381 102.817 255.064 102.7 254.564 102.6L252.814 102.2V101.3L264.814 99.8H265.664V103.85C266.931 102.817 268.481 101.933 270.314 101.2C272.148 100.467 274.181 100.1 276.414 100.1C279.514 100.1 281.731 100.75 283.064 102.05C284.398 103.35 285.064 105.3 285.064 107.9V122.6ZM314.914 125C314.014 125 313.364 124.767 312.964 124.3C312.564 123.833 312.364 123.133 312.364 122.2C310.231 124.467 307.331 125.6 303.664 125.6C299.998 125.6 297.064 124.55 294.864 122.45C292.698 120.35 291.614 117.067 291.614 112.6C291.614 108.3 292.698 105.15 294.864 103.15C297.031 101.117 299.964 100.1 303.664 100.1C305.664 100.1 307.331 100.333 308.664 100.8C310.031 101.267 311.231 101.867 312.264 102.6V92.4C312.264 92.0333 312.181 91.7833 312.014 91.65C311.881 91.5167 311.564 91.4 311.064 91.3L309.314 90.9V90L321.314 88.5H322.264V122.6C322.264 122.967 322.331 123.217 322.464 123.35C322.631 123.483 322.964 123.6 323.464 123.7L325.214 124.1V125H314.914ZM306.614 123.45C308.581 123.45 310.464 122.517 312.264 120.65V104.1C310.664 102.833 308.864 102.2 306.864 102.2C305.031 102.2 303.748 103.017 303.014 104.65C302.281 106.25 301.914 108.9 301.914 112.6C301.914 115.233 302.048 117.333 302.314 118.9C302.614 120.433 303.098 121.583 303.764 122.35C304.464 123.083 305.414 123.45 306.614 123.45ZM346.871 122.55C346.871 122.917 346.938 123.167 347.071 123.3C347.238 123.4 347.554 123.5 348.021 123.6L349.821 124V125H342.221V124L344.071 123.6C344.571 123.5 344.888 123.383 345.021 123.25C345.188 123.117 345.271 122.867 345.271 122.5V92.5C345.271 92.1333 345.188 91.8833 345.021 91.75C344.888 91.6167 344.571 91.5 344.071 91.4L342.221 91V90H355.021L365.321 112.25L374.521 90H387.721V91L385.871 91.4C385.371 91.5 385.038 91.6167 384.871 91.75C384.738 91.8833 384.671 92.1333 384.671 92.5V122.5C384.671 122.867 384.738 123.117 384.871 123.25C385.038 123.383 385.371 123.5 385.871 123.6L387.721 124V125H371.521V124L373.321 123.6C373.788 123.5 374.088 123.4 374.221 123.3C374.388 123.167 374.471 122.917 374.471 122.55V94.25L361.771 125H360.271L346.871 95.55V122.55ZM409.917 125C408.983 125 408.317 124.817 407.917 124.45C407.55 124.05 407.367 123.4 407.367 122.5V122.25C405.133 124.417 401.95 125.5 397.817 125.5C395.65 125.5 393.95 125.017 392.717 124.05C391.517 123.05 390.917 121.517 390.917 119.45C390.917 117.383 391.517 115.767 392.717 114.6C393.95 113.433 395.733 112.6 398.067 112.1C400.4 111.6 403.5 111.3 407.367 111.2V107.55C407.367 105.683 407 104.35 406.267 103.55C405.533 102.717 404.25 102.3 402.417 102.3C400.883 102.3 399.45 102.517 398.117 102.95C396.817 103.35 395.483 103.967 394.117 104.8L393.467 103.85C395.067 102.717 396.983 101.817 399.217 101.15C401.483 100.45 404.017 100.1 406.817 100.1C410.583 100.1 413.267 100.85 414.867 102.35C416.467 103.817 417.267 105.95 417.267 108.75V122.6C417.267 122.967 417.333 123.217 417.467 123.35C417.633 123.483 417.967 123.6 418.467 123.7L420.217 124.1V125H409.917ZM403.417 122.35C404.85 122.35 406.167 121.783 407.367 120.65V112.55C405.5 112.683 404.083 112.983 403.117 113.45C402.15 113.883 401.483 114.517 401.117 115.35C400.783 116.183 400.617 117.317 400.617 118.75C400.617 120.017 400.833 120.933 401.267 121.5C401.733 122.067 402.45 122.35 403.417 122.35ZM434.594 124.4C436.161 124.4 437.311 124.167 438.044 123.7C438.811 123.233 439.194 122.417 439.194 121.25C439.194 120.45 438.994 119.8 438.594 119.3C438.194 118.8 437.561 118.35 436.694 117.95C435.828 117.55 434.444 117 432.544 116.3C429.311 115.133 427.011 113.933 425.644 112.7C424.278 111.433 423.594 109.7 423.594 107.5C423.594 105 424.528 103.15 426.394 101.95C428.261 100.717 431.094 100.1 434.894 100.1C436.828 100.1 438.728 100.3 440.594 100.7C442.461 101.067 443.911 101.5 444.944 102L444.344 108H443.494C442.594 105.767 441.511 104.083 440.244 102.95C438.978 101.783 437.144 101.2 434.744 101.2C433.211 101.2 432.028 101.417 431.194 101.85C430.361 102.25 429.944 103 429.944 104.1C429.944 104.867 430.128 105.483 430.494 105.95C430.894 106.417 431.494 106.85 432.294 107.25C433.128 107.65 434.494 108.233 436.394 109C439.128 110.1 441.194 111.05 442.594 111.85C443.994 112.65 445.028 113.567 445.694 114.6C446.361 115.633 446.694 116.933 446.694 118.5C446.694 121 445.728 122.817 443.794 123.95C441.894 125.05 439.028 125.6 435.194 125.6C433.161 125.6 431.028 125.4 428.794 125C426.594 124.633 424.944 124.2 423.844 123.7L424.544 116.9H425.394C425.994 119.533 427.061 121.45 428.594 122.65C430.128 123.817 432.128 124.4 434.594 124.4ZM450.078 102V100.7C451.111 100.7 451.878 100.617 452.378 100.45C452.878 100.283 453.378 99.9833 453.878 99.55L462.778 91.55H463.228V100.7H469.678V102H463.228V118.8C463.228 120.4 463.411 121.533 463.778 122.2C464.178 122.833 464.844 123.15 465.778 123.15C466.511 123.15 467.161 123 467.728 122.7C468.294 122.4 468.911 121.883 469.578 121.15L470.378 122.1C468.278 124.433 465.178 125.6 461.078 125.6C458.311 125.6 456.328 125.017 455.128 123.85C453.928 122.683 453.328 120.867 453.328 118.4V102H450.078ZM484.092 112.2C484.125 115.9 484.709 118.717 485.842 120.65C487.009 122.583 489.175 123.55 492.342 123.55C493.909 123.55 495.292 123.317 496.492 122.85C497.725 122.383 498.992 121.717 500.292 120.85L500.942 121.8C497.842 124.333 493.742 125.6 488.642 125.6C484.042 125.6 480.409 124.5 477.742 122.3C475.109 120.067 473.792 116.817 473.792 112.55C473.792 108.517 475.142 105.433 477.842 103.3C480.542 101.167 484.325 100.1 489.192 100.1C491.959 100.1 494.292 100.533 496.192 101.4C498.092 102.267 499.492 103.433 500.392 104.9C501.325 106.333 501.792 107.933 501.792 109.7C501.792 110.6 501.709 111.433 501.542 112.2H484.092ZM488.892 101.3C487.059 101.3 485.809 102.067 485.142 103.6C484.475 105.133 484.125 107.567 484.092 110.9H492.492V107.15C492.492 105.117 492.242 103.633 491.742 102.7C491.275 101.767 490.325 101.3 488.892 101.3ZM518.252 104.7C521.152 101.733 524.102 100.25 527.102 100.25C528.202 100.25 529.069 100.383 529.702 100.65L528.952 108.45H528.602L518.352 106.2V122.6C518.352 122.967 518.419 123.233 518.552 123.4C518.719 123.533 519.035 123.65 519.502 123.75L521.202 124.1V125H505.402V124.1L507.152 123.7C507.652 123.6 507.969 123.483 508.102 123.35C508.269 123.217 508.352 122.967 508.352 122.6V103.7C508.352 103.333 508.269 103.083 508.102 102.95C507.969 102.817 507.652 102.7 507.152 102.6L505.402 102.2V101.3L517.402 99.8H518.252V104.7ZM544.604 124.4C546.171 124.4 547.321 124.167 548.054 123.7C548.821 123.233 549.204 122.417 549.204 121.25C549.204 120.45 549.004 119.8 548.604 119.3C548.204 118.8 547.571 118.35 546.704 117.95C545.837 117.55 544.454 117 542.554 116.3C539.321 115.133 537.021 113.933 535.654 112.7C534.287 111.433 533.604 109.7 533.604 107.5C533.604 105 534.537 103.15 536.404 101.95C538.271 100.717 541.104 100.1 544.904 100.1C546.837 100.1 548.737 100.3 550.604 100.7C552.471 101.067 553.921 101.5 554.954 102L554.354 108H553.504C552.604 105.767 551.521 104.083 550.254 102.95C548.987 101.783 547.154 101.2 544.754 101.2C543.221 101.2 542.037 101.417 541.204 101.85C540.371 102.25 539.954 103 539.954 104.1C539.954 104.867 540.137 105.483 540.504 105.95C540.904 106.417 541.504 106.85 542.304 107.25C543.137 107.65 544.504 108.233 546.404 109C549.137 110.1 551.204 111.05 552.604 111.85C554.004 112.65 555.037 113.567 555.704 114.6C556.371 115.633 556.704 116.933 556.704 118.5C556.704 121 555.737 122.817 553.804 123.95C551.904 125.05 549.037 125.6 545.204 125.6C543.171 125.6 541.037 125.4 538.804 125C536.604 124.633 534.954 124.2 533.854 123.7L534.554 116.9H535.404C536.004 119.533 537.071 121.45 538.604 122.65C540.137 123.817 542.137 124.4 544.604 124.4Z" fill="#6495ED"/>
</g>
<defs>
<filter id="filter0_d_19_60" x="31.7089" y="45.706" width="142" height="78.5" filterUnits="userSpaceOnUse" color-interpolation-filters="sRGB">
<feFlood flood-opacity="0" result="BackgroundImageFix"/>
<feColorMatrix in="SourceAlpha" type="matrix" values="0 0 0 0 0 0 0 0 0 0 0 0 0 0 0 0 0 0 127 0" result="hardAlpha"/>
<feOffset dy="5"/>
<feGaussianBlur stdDeviation="5"/>
<feComposite in2="hardAlpha" operator="out"/>
<feColorMatrix type="matrix" values="0 0 0 0 0 0 0 0 0 0 0 0 0 0 0 0 0 0 0.2 0"/>
<feBlend mode="normal" in2="BackgroundImageFix" result="effect1_dropShadow_19_60"/>
<feBlend mode="normal" in="SourceGraphic" in2="effect1_dropShadow_19_60" result="shape"/>
</filter>
<filter id="filter1_d_19_60" x="182.313" y="88.5" width="378.391" height="45.1" filterUnits="userSpaceOnUse" color-interpolation-filters="sRGB">
<feFlood flood-opacity="0" result="BackgroundImageFix"/>
<feColorMatrix in="SourceAlpha" type="matrix" values="0 0 0 0 0 0 0 0 0 0 0 0 0 0 0 0 0 0 127 0" result="hardAlpha"/>
<feOffset dy="4"/>
<feGaussianBlur stdDeviation="2"/>
<feComposite in2="hardAlpha" operator="out"/>
<feColorMatrix type="matrix" values="0 0 0 0 0 0 0 0 0 0 0 0 0 0 0 0 0 0 0.25 0"/>
<feBlend mode="normal" in2="BackgroundImageFix" result="effect1_dropShadow_19_60"/>
<feBlend mode="normal" in="SourceGraphic" in2="effect1_dropShadow_19_60" result="shape"/>
</filter>
</defs>
</svg>
